<svg xmlns="http://www.w3.org/2000/svg" viewBox="0 0 760 430" role="img" aria-labelledby="title desc">
  <title id="title">Community care coordination</title>
  <desc id="desc">A support coordinator and an older adult reviewing a care plan.</desc>
  <rect width="760" height="430" rx="16" fill="#e5f1ec"/>
  <circle cx="112" cy="101" r="54" fill="#f2b18f"/>
  <path d="M62 102c6-64 104-70 112 0-23-18-53-27-112 0Z" fill="#39423f"/>
  <path d="M56 390c0-116 30-170 104-170s112 54 112 170" fill="#d75d47"/>
  <circle cx="542" cy="109" r="55" fill="#a95c43"/>
  <path d="M488 106c7-62 95-75 115-6-29-13-70-18-115 6Z" fill="#1c2b2a"/>
  <path d="M467 390c3-115 29-172 111-172 77 0 107 58 112 172" fill="#176b55"/>
  <rect x="208" y="125" width="356" height="205" rx="14" fill="#fff" stroke="#b9cec6" stroke-width="6"/>
  <path d="M246 168h175M246 195h244M246 222h198" stroke="#176b55" stroke-width="13" stroke-linecap="round"/>
  <circle cx="485" cy="250" r="38" fill="#dff1ea"/><path d="m466 250 14 14 28-32" fill="none" stroke="#176b55" stroke-width="10" stroke-linecap="round" stroke-linejoin="round"/>
  <path d="M264 292h165" stroke="#d75d47" stroke-width="12" stroke-linecap="round"/>
</svg>
